<?xml version="1.0" standalone="no"?>
<!DOCTYPE svg PUBLIC "-//W3C//DTD SVG 20010904//EN"
 "http://www.w3.org/TR/2001/REC-SVG-20010904/DTD/svg10.dtd">
<svg version="1.0" xmlns="http://www.w3.org/2000/svg"
 width="258.000000pt" height="259.000000pt" viewBox="0 0 258.000000 259.000000"
 preserveAspectRatio="xMidYMid meet">

<g transform="translate(0.000000,259.000000) scale(0.100000,-0.100000)"
fill="#ffffff" stroke="none">
<path d="M10 1295 l0 -1295 1285 0 1285 0 0 1295 0 1295 -1285 0 -1285 0 0
-1295z m2180 -20 l0 -885 -884 0 c-487 0 -886 3 -888 8 -2 4 -2 402 0 885 l3
877 885 0 884 0 0 -885z"/>
<path d="M600 1818 c0 -90 -3 -407 -7 -705 l-6 -543 711 0 712 0 0 705 0 705
-705 0 -705 0 0 -162z m629 -208 c70 -39 86 -69 86 -155 0 -67 -3 -76 -31
-112 l-32 -39 30 -20 c35 -22 78 -105 78 -149 0 -58 -22 -110 -64 -151 -54
-54 -107 -65 -292 -62 l-139 3 -3 345 c-1 190 0 351 3 358 4 11 37 13 163 10
145 -3 160 -5 201 -28z m301 -280 l0 -310 150 0 150 0 0 -50 0 -50 -205 0
-205 0 0 360 0 360 55 0 55 0 0 -310z"/>
<path d="M970 1445 l0 -95 90 0 c99 0 132 10 149 47 20 43 13 82 -18 114 -28
28 -33 29 -125 29 l-96 0 0 -95z"/>
<path d="M970 1136 l0 -116 96 0 c143 0 184 27 184 120 0 30 -7 48 -29 72
l-29 33 -111 3 -111 4 0 -116z"/>
</g>
</svg>
